<?xml version="1.0" encoding="UTF-8" standalone="no"?>
<!-- Created with Inkscape (http://www.inkscape.org/) -->

<svg
   xmlns:dc="http://purl.org/dc/elements/1.1/"
   xmlns:cc="http://creativecommons.org/ns#"
   xmlns:rdf="http://www.w3.org/1999/02/22-rdf-syntax-ns#"
   xmlns:svg="http://www.w3.org/2000/svg"
   xmlns="http://www.w3.org/2000/svg"
   xmlns:sodipodi="http://sodipodi.sourceforge.net/DTD/sodipodi-0.dtd"
   xmlns:inkscape="http://www.inkscape.org/namespaces/inkscape"
   width="24"
   height="24"
   viewBox="0 0 6.35 6.3500001"
   version="1.1"
   id="svg8"
   inkscape:version="0.92.2 2405546, 2018-03-11"
   sodipodi:docname="timer.svg">
  <defs
     id="defs2" />
  <sodipodi:namedview
     id="base"
     pagecolor="#ffffff"
     bordercolor="#666666"
     borderopacity="1.0"
     inkscape:pageopacity="0.0"
     inkscape:pageshadow="2"
     inkscape:zoom="17.354166"
     inkscape:cx="13.367162"
     inkscape:cy="12.372252"
     inkscape:document-units="mm"
     inkscape:current-layer="layer1"
     showgrid="false"
     units="px"
     inkscape:window-width="1822"
     inkscape:window-height="1027"
     inkscape:window-x="98"
     inkscape:window-y="30"
     inkscape:window-maximized="1"
     showguides="true"
     inkscape:guide-bbox="true" />
  <metadata
     id="metadata5">
    <rdf:RDF>
      <cc:Work
         rdf:about="">
        <dc:format>image/svg+xml</dc:format>
        <dc:type
           rdf:resource="http://purl.org/dc/dcmitype/StillImage" />
        <dc:title></dc:title>
      </cc:Work>
    </rdf:RDF>
  </metadata>
  <g
     inkscape:label="Layer 1"
     inkscape:groupmode="layer"
     id="layer1"
     transform="translate(0,-290.64997)">
    <path
       id="rect27"
       style="fill:#999999;stroke-width:0.03049939"
       d="m 3.1932334,292.73361 a 1.5905055,1.5905055 0 0 1 1.5905482,1.59055 1.5905055,1.5905055 0 0 1 -1.5905482,1.59049 1.5905055,1.5905055 0 0 1 -1.5904923,-1.59049 1.5905055,1.5905055 0 0 1 1.5904923,-1.59055 z m -5e-7,-0.568 a 2.1585428,2.1585428 0 0 0 -2.1585506,2.15855 2.1585428,2.1585428 0 0 0 2.1585506,2.15855 2.1585428,2.1585428 0 0 0 2.1585497,-2.15855 2.1585428,2.1585428 0 0 0 -2.1585497,-2.15855 z m -0.5301826,-0.97456 c -0.094408,0 -0.1704068,0.076 -0.1704068,0.1704 v 0.48285 c 8e-7,0.0944 0.075998,0.17041 0.170406,0.17041 h 1.0603288 c 0.094408,0 0.1704626,-0.076 0.1704626,-0.17041 v -0.48285 c 0,-0.0944 -0.076055,-0.1704 -0.1704626,-0.17041 z m -0.4371578,2.17049 c 0.051922,-0.0519 0.1398156,-0.0476 0.1970717,0.01 l 0.8710959,0.87109 c 0.057256,0.0573 0.061551,0.14515 0.00963,0.19708 -0.051921,0.0519 -0.1398159,0.0476 -0.1970717,-0.01 l -0.8710959,-0.87109 c -0.057256,-0.0573 -0.06155,-0.14515 -0.00963,-0.19707 z" />
  </g>
</svg>
